# xmcd CD database file
#
# Track frame offsets:
#	150
#	7500
#	21150
#	46725
#	74925
#	116550
#	132375
#	145875
#	165450
#	177525
#	205650
#	221100
#	252000
#	263700
#	279000
#	297600
#	329550
#	341475
#
# Disc length: 4784 seconds
#
# Revision: 2
# Processed by: cddbd v1.5.2PL0 Copyright (c) Steve Scherf et al.
# Submitted via: CDex 1.51
#
DISCID=1312ae12
DTITLE=Cuby and Blizzards - repertoire
DYEAR=2012
DGENRE=Blues
TTITLE0=Cuby and Blizzards - The Faker
TTITLE1=Cuby and Blizzards - Another Day Another Road
TTITLE2=Cuby and Blizzards - Distant smile
TTITLE3=Cuby and Blizzards - Help Me
TTITLE4=Cuby and Blizzards - Too Blind To See
TTITLE5=Cuby and Blizzards - Night train
TTITLE6=Cuby and Blizzards - The legend [intro]
TTITLE7=Cuby and Blizzards - Appleknockers Flophouse
TTITLE8=Cuby and Blizzards - Checkin' Upon My Baby
TTITLE9=Cuby and Blizzards - Five Long Years
TTITLE10=Cuby and Blizzards - Window of My Eyes
TTITLE11=Cuby and Blizzards - Somebody Will Know Someday
TTITLE12=Cuby and Blizzards - Feeling Like A Suitcase
TTITLE13=Cuby and Blizzards - Disappointed Blues
TTITLE14=Cuby and Blizzardss - 116 A Queensway
TTITLE15=Duane Allman - B.B. King Medley
TTITLE16=Cuby and Blizzards - Midnight Mover
TTITLE17=Cuby and Blizzards - Going Home
EXTD=YEAR: 2012
EXTT0=
EXTT1=
EXTT2=
EXTT3=
EXTT4=
EXTT5=
EXTT6=
EXTT7=
EXTT8=
EXTT9=
EXTT10=
EXTT11=
EXTT12=
EXTT13=
EXTT14=
EXTT15=
EXTT16=
EXTT17=
PLAYORDER=
